<?xml version="1.0" encoding="UTF-8"?>
<svg width="32px" height="32px" viewBox="0 0 32 32" version="1.1" xmlns="http://www.w3.org/2000/svg">
    <title>Healthy Lifestyle</title>
    <g stroke="none" stroke-width="1" fill="none" fill-rule="evenodd">
        <circle fill="#4CAF50" cx="16" cy="16" r="16"/>
        <path d="M16,7 C19.866,7 23,10.134 23,14 C23,17.866 19.866,21 16,21 C12.134,21 9,17.866 9,14 C9,10.134 12.134,7 16,7 Z" fill="#FFFFFF" fill-rule="nonzero"/>
        <path d="M16,10 C18.209,10 20,11.791 20,14 C20,16.209 18.209,18 16,18 C13.791,18 12,16.209 12,14 C12,11.791 13.791,10 16,10 Z" fill="#4CAF50" fill-rule="nonzero"/>
        <path d="M16,23 L16,25 M12,24 L12,26 M20,24 L20,26" stroke="#FFFFFF" stroke-width="2" stroke-linecap="round"/>
    </g>
</svg>
